<svg xmlns="http://www.w3.org/2000/svg" width="152.17000000000002" height="35" viewBox="0 0 152.17000000000002 35"><rect class="svg__rect" x="0" y="0" width="45.480000000000004" height="35" fill="#7D8F43"/><rect class="svg__rect" x="43.480000000000004" y="0" width="108.69" height="35" fill="#A4C639"/><path class="svg__text" d="M13.95 18.00L13.95 18.00L13.95 17.52Q13.95 16.28 14.39 15.32Q14.83 14.37 15.64 13.86Q16.44 13.35 17.49 13.35Q18.53 13.35 19.34 13.85Q20.14 14.35 20.58 15.29Q21.02 16.23 21.03 17.48L21.03 17.48L21.03 17.96Q21.03 19.21 20.59 20.16Q20.16 21.10 19.35 21.61Q18.55 22.12 17.50 22.12L17.50 22.12Q16.46 22.12 15.65 21.61Q14.84 21.10 14.40 20.17Q13.95 19.23 13.95 18.00ZM15.43 17.46L15.43 17.96Q15.43 19.36 15.98 20.13Q16.53 20.90 17.50 20.90L17.50 20.90Q18.48 20.90 19.01 20.15Q19.54 19.40 19.54 17.96L19.54 17.96L19.54 17.51Q19.54 16.09 19.01 15.34Q18.47 14.58 17.49 14.58L17.49 14.58Q16.53 14.58 15.98 15.33Q15.44 16.09 15.43 17.46L15.43 17.46ZM25.06 19.42L25.06 19.42L26.54 19.42Q26.54 20.15 27.02 20.55Q27.50 20.95 28.40 20.95L28.40 20.95Q29.17 20.95 29.56 20.63Q29.95 20.32 29.95 19.80L29.95 19.80Q29.95 19.24 29.55 18.94Q29.16 18.63 28.13 18.32Q27.10 18.01 26.49 17.63L26.49 17.63Q25.32 16.90 25.32 15.72L25.32 15.72Q25.32 14.69 26.16 14.02Q27.00 13.35 28.34 13.35L28.34 13.35Q29.23 13.35 29.93 13.68Q30.63 14.01 31.03 14.61Q31.43 15.22 31.43 15.96L31.43 15.96L29.95 15.96Q29.95 15.29 29.53 14.91Q29.11 14.54 28.33 14.54L28.33 14.54Q27.61 14.54 27.20 14.85Q26.80 15.16 26.80 15.71L26.80 15.71Q26.80 16.18 27.24 16.50Q27.67 16.81 28.67 17.10Q29.66 17.40 30.27 17.78Q30.87 18.16 31.15 18.65Q31.43 19.13 31.43 19.79L31.43 19.79Q31.43 20.86 30.61 21.49Q29.80 22.12 28.40 22.12L28.40 22.12Q27.47 22.12 26.69 21.77Q25.92 21.43 25.49 20.83Q25.06 20.22 25.06 19.42Z" fill="#FFFFFF"/><path class="svg__text" d="M59.09 22L56.66 22L60.37 13.60L62.71 13.60L66.43 22L63.96 22L63.30 20.37L59.75 20.37L59.09 22ZM61.52 15.93L60.44 18.61L62.60 18.61L61.52 15.93ZM72.91 22L70.58 22L70.58 13.60L72.54 13.60L76.25 18.07L76.25 13.60L78.57 13.60L78.57 22L76.62 22L72.91 17.52L72.91 22ZM87.71 22L83.74 22L83.74 13.60L87.71 13.60Q89.09 13.60 90.16 14.12Q91.22 14.63 91.81 15.58Q92.40 16.53 92.40 17.80L92.40 17.80Q92.40 19.07 91.81 20.02Q91.22 20.97 90.16 21.48Q89.09 22 87.71 22L87.71 22ZM86.12 15.50L86.12 20.10L87.62 20.10Q88.69 20.10 89.35 19.49Q90.00 18.88 90.00 17.80L90.00 17.80Q90.00 16.72 89.35 16.11Q88.69 15.50 87.62 15.50L87.62 15.50L86.12 15.50ZM99.51 22L97.13 22L97.13 13.60L100.97 13.60Q102.12 13.60 102.95 13.98Q103.79 14.35 104.25 15.06Q104.71 15.76 104.71 16.71L104.71 16.71Q104.71 17.62 104.28 18.30Q103.85 18.98 103.06 19.36L103.06 19.36L104.87 22L102.33 22L100.80 19.77L99.51 19.77L99.51 22ZM99.51 15.47L99.51 17.93L100.83 17.93Q101.56 17.93 101.93 17.61Q102.30 17.29 102.30 16.71L102.30 16.71Q102.30 16.12 101.93 15.79Q101.56 15.47 100.83 15.47L100.83 15.47L99.51 15.47ZM109.07 17.80L109.07 17.80Q109.07 16.55 109.67 15.55Q110.27 14.56 111.34 14.00Q112.40 13.43 113.73 13.43L113.73 13.43Q115.06 13.43 116.12 14.00Q117.19 14.56 117.79 15.55Q118.40 16.55 118.40 17.80L118.40 17.80Q118.40 19.05 117.79 20.04Q117.19 21.04 116.13 21.60Q115.07 22.17 113.73 22.17L113.73 22.17Q112.40 22.17 111.34 21.60Q110.27 21.04 109.67 20.04Q109.07 19.05 109.07 17.80ZM111.46 17.80L111.46 17.80Q111.46 18.51 111.76 19.05Q112.07 19.60 112.58 19.90Q113.10 20.20 113.73 20.20L113.73 20.20Q114.37 20.20 114.88 19.90Q115.40 19.60 115.70 19.05Q116.00 18.51 116.00 17.80L116.00 17.80Q116.00 17.09 115.70 16.54Q115.40 16 114.88 15.70Q114.37 15.40 113.73 15.40L113.73 15.40Q113.09 15.40 112.58 15.70Q112.07 16 111.76 16.54Q111.46 17.09 111.46 17.80ZM125.51 22L123.13 22L123.13 13.60L125.51 13.60L125.51 22ZM134.65 22L130.68 22L130.68 13.60L134.65 13.60Q136.04 13.60 137.10 14.12Q138.17 14.63 138.76 15.58Q139.35 16.53 139.35 17.80L139.35 17.80Q139.35 19.07 138.76 20.02Q138.17 20.97 137.10 21.48Q136.04 22 134.65 22L134.65 22ZM133.06 15.50L133.06 20.10L134.56 20.10Q135.64 20.10 136.29 19.49Q136.95 18.88 136.95 17.80L136.95 17.80Q136.95 16.72 136.29 16.11Q135.64 15.50 134.56 15.50L134.56 15.50L133.06 15.50Z" fill="#FFFFFF" x="56.480000000000004"/></svg>